<mxfile host="app.diagrams.net" modified="2023-09-28T10:08:13.906Z" agent="Mozilla/5.0 (Macintosh; Intel Mac OS X 10_15_7) AppleWebKit/605.1.15 (KHTML, like Gecko) Version/16.5 Safari/605.1.15" version="21.8.2" etag="8U7-0b5vDImZBVrP6g2J" type="github">
  <diagram name="Seite-1" id="TjKPT8W7mYsPB-eLJYPs">
    <mxGraphModel>
      <root>
        <mxCell id="0" />
        <mxCell id="1" parent="0" />
      </root>
    </mxGraphModel>
  </diagram>
</mxfile>
